<?xml version="1.0" encoding="utf-8"?>
<svg version="1.1" id="Layer_1" xmlns="http://www.w3.org/2000/svg" x="0px" y="0px" viewBox="0 0 21 11" style="enable-background:new 0 0 21 11;">
  <title>shaper-5-ot</title>
  <g id="Layer_2_1_">
    <g id="redrawn">
      <path d="M 18.5 3 C 7.691 3.867 7 7.63 7 7.66 C 6.926 7.871 6.723 8.008 6.5 8 C 6.257 8.009 6.044 7.839 6 7.6 C 6 7.6 5.05 3 2.5 3 L 1.5 3 C 1.224 3 1 2.776 1 2.5 C 1 2.224 1.224 2 1.5 2 L 2.5 2 C 4.83 2 6.06 4.47 6.62 6.07 C 7.148 4.921 11.366 2.373 18.5 2 L 19.5 2 C 19.776 2 20 2.224 20 2.5 C 20 2.776 19.776 3 19.5 3 L 18.5 3 Z"/>
    </g>
  </g>
</svg>