<?xml version="1.0" encoding="utf-8"?>
<!-- Generator: Adobe Illustrator 22.0.1, SVG Export Plug-In . SVG Version: 6.00 Build 0)  -->
<svg version="1.1" id="Layer_1" xmlns="http://www.w3.org/2000/svg" xmlns:xlink="http://www.w3.org/1999/xlink" x="0px" y="0px"
	 viewBox="0 0 21 11" style="enable-background:new 0 0 21 11;" xml:space="preserve">
<title>shaper-5-ot</title>
<g id="Layer_2_1_">
	<g id="redrawn">
		<path d="M15.5,9c-0.237,0.011-0.447-0.149-0.5-0.38C14.78,7.68,13.81,5,12.5,5h-3C7.9,5,7,7.63,7,7.66
			C6.926,7.871,6.723,8.008,6.5,8C6.257,8.009,6.044,7.839,6,7.6C6,7.6,5.05,3,2.5,3h-1C1.224,3,1,2.776,1,2.5S1.224,2,1.5,2h1
			c2.33,0,3.56,2.47,4.12,4.07C7.148,4.921,8.242,4.135,9.5,4h3c1.5,0,2.5,1.64,3,2.93C16,5.64,17,4,18.5,4h1
			C19.776,4,20,4.224,20,4.5S19.776,5,19.5,5h-1c-1.31,0-2.28,2.68-2.5,3.62C15.947,8.851,15.737,9.011,15.5,9z"/>
	</g>
</g>
</svg>
